<?xml version="1.0" encoding="UTF-8" standalone="no"?>
<svg
   xmlns:dc="http://purl.org/dc/elements/1.1/"
   xmlns:cc="http://creativecommons.org/ns#"
   xmlns:rdf="http://www.w3.org/1999/02/22-rdf-syntax-ns#"
   xmlns:svg="http://www.w3.org/2000/svg"
   xmlns="http://www.w3.org/2000/svg"
   xmlns:sodipodi="http://sodipodi.sourceforge.net/DTD/sodipodi-0.dtd"
   xmlns:inkscape="http://www.inkscape.org/namespaces/inkscape"
   width="210mm"
   height="297mm"
   viewBox="0 0 210 297"
   version="1.1"
   id="svg2585"
   sodipodi:docname="light-logo.svg"
   inkscape:version="1.0.2 (e86c870879, 2021-01-15, custom)">
  <title
     id="title1482">Light Logo</title>
  <defs
     id="defs2579" />
  <sodipodi:namedview
     id="base"
     pagecolor="#ffffff"
     bordercolor="#666666"
     borderopacity="1.0"
     inkscape:pageopacity="0.0"
     inkscape:pageshadow="2"
     inkscape:zoom="0.7"
     inkscape:cx="610.86476"
     inkscape:cy="452.18909"
     inkscape:document-units="mm"
     inkscape:current-layer="layer1"
     inkscape:document-rotation="0"
     showgrid="false"
     inkscape:window-width="770"
     inkscape:window-height="696"
     inkscape:window-x="623"
     inkscape:window-y="0"
     inkscape:window-maximized="0" />
  <metadata
     id="metadata2582">
    <rdf:RDF>
      <cc:Work
         rdf:about="">
        <dc:format>image/svg+xml</dc:format>
        <dc:type
           rdf:resource="http://purl.org/dc/dcmitype/StillImage" />
        <dc:title>Light Logo</dc:title>
      </cc:Work>
    </rdf:RDF>
  </metadata>
  <g
     inkscape:label="Capa 1"
     inkscape:groupmode="layer"
     id="layer1">
    <path
       style="fill:#ffffff;stroke:#000000;stroke-width:2;stroke-linecap:butt;stroke-linejoin:miter;stroke-miterlimit:4;stroke-dasharray:none;stroke-opacity:1;fill-opacity:1"
       d="M 98.087007,60.829296 C 130.13579,61.766475 133.4679,45.363327 151.80819,58.1566 c 33.39571,26.716753 37.22129,152.73537 -9.35443,95.94979 l -13.84408,-18.8653 C 113.7137,134.66961 115.38842,132.4945 108.7778,131.12121 H 97.819738 v 0"
       id="path3212-9"
       sodipodi:nodetypes="ccccccc" />
    <path
       style="fill:#ffffff;stroke:#000000;stroke-width:2;stroke-linecap:butt;stroke-linejoin:miter;stroke-miterlimit:4;stroke-dasharray:none;stroke-opacity:1;fill-opacity:1"
       d="M 98.355186,60.915964 C 66.306409,61.853143 62.974302,45.449995 44.634011,58.243268 11.238295,84.960021 7.4127135,210.97862 53.988443,154.19304 l 13.844076,-18.8653 c 14.895983,-0.57148 13.221256,-2.74659 19.831884,-4.11988 h 10.958052 v 0"
       id="path3212"
       sodipodi:nodetypes="ccccccc" />
    <path
       style="fill:#d40000;fill-opacity:1;stroke:#000000;stroke-width:1.50343;stroke-linecap:butt;stroke-linejoin:miter;stroke-miterlimit:4;stroke-dasharray:none;stroke-opacity:1"
       d="m 103.25187,83.709961 2.83531,-19.244102 H 74.898684 l -15.310715,20.52704 -0.567063,24.375891 13.609528,14.7538 28.920246,-1.28294 11.34126,-15.39527 2.26825,-21.81001 -31.755544,4.490298 v 11.546482 l 10.774192,1.28293 -1.134115,3.84883 H 82.837572 l -5.670631,-8.339129 3.40239,-12.187943 z"
       id="path847-7-5-8"
       inkscape:connector-curvature="0" />
    <path
       style="fill:#1a1a1a;fill-opacity:1;stroke:#000000;stroke-width:1.50343;stroke-linecap:butt;stroke-linejoin:miter;stroke-miterlimit:4;stroke-dasharray:none;stroke-opacity:1"
       d="m 95.448093,97.923013 15.787037,31.593587 6.20205,-12.55087 10.11416,12.98366 15.22321,-31.1608 -12.36945,-4.327887 -4.51058,13.416467 -8.45734,-11.252523 -5.07441,10.819733 -5.63823,-12.983677 z"
       id="path860-90-8-8"
       inkscape:connector-curvature="0"
       sodipodi:nodetypes="ccccccccccc" />
    <path
       style="fill:#aa0000;fill-opacity:1;stroke:#000000;stroke-width:1.50221;stroke-linecap:butt;stroke-linejoin:miter;stroke-miterlimit:4;stroke-dasharray:none;stroke-opacity:1"
       d="m 55.460328,128.00799 c 55.693042,-12.17999 92.052232,-4.24907 92.052232,-4.24907 l 5.48274,9.91113 c 0,0 -22.2195,-14.44482 -97.534972,-5.66206 z"
       id="path1014-0-4-4" />
    <path
       style="fill:#1a1a1a;fill-opacity:1;stroke:#000000;stroke-width:1.50343;stroke-linecap:round;stroke-linejoin:round;stroke-miterlimit:4;stroke-dasharray:none;stroke-opacity:1"
       d="m 142.77455,98.78859 -15.22321,31.1608 -9.58499,-12.98366 v 0 0"
       id="path1622-9-3-5"
       sodipodi:nodetypes="ccccc" />
  </g>
</svg>
