<?xml version="1.0" encoding="UTF-8" standalone="no"?>
<svg
   xmlns:dc="http://purl.org/dc/elements/1.1/"
   xmlns:cc="http://creativecommons.org/ns#"
   xmlns:rdf="http://www.w3.org/1999/02/22-rdf-syntax-ns#"
   xmlns:svg="http://www.w3.org/2000/svg"
   xmlns="http://www.w3.org/2000/svg"
   xmlns:sodipodi="http://sodipodi.sourceforge.net/DTD/sodipodi-0.dtd"
   xmlns:inkscape="http://www.inkscape.org/namespaces/inkscape"
   width="1000"
   height="1000"
   viewBox="0 0 264.58333 264.58333"
   version="1.1"
   id="svg1492"
   inkscape:version="1.0.2 (e86c870879, 2021-01-15, custom)"
   sodipodi:docname="logo-background.svg">
  <defs
     id="defs1486" />
  <sodipodi:namedview
     id="base"
     pagecolor="#ffffff"
     bordercolor="#666666"
     borderopacity="1.0"
     inkscape:pageopacity="0.0"
     inkscape:pageshadow="2"
     inkscape:zoom="0.49497475"
     inkscape:cx="666.07514"
     inkscape:cy="684.21311"
     inkscape:document-units="mm"
     inkscape:current-layer="layer1"
     inkscape:document-rotation="0"
     showgrid="false"
     units="px"
     width="1000mm"
     inkscape:window-width="1920"
     inkscape:window-height="1017"
     inkscape:window-x="-8"
     inkscape:window-y="-8"
     inkscape:window-maximized="1" />
  <metadata
     id="metadata1489">
    <rdf:RDF>
      <cc:Work
         rdf:about="">
        <dc:format>image/svg+xml</dc:format>
        <dc:type
           rdf:resource="http://purl.org/dc/dcmitype/StillImage" />
        <dc:title />
      </cc:Work>
    </rdf:RDF>
  </metadata>
  <g
     inkscape:label="Capa 1"
     inkscape:groupmode="layer"
     id="layer1">
    <path
       style="fill:none;fill-opacity:1;stroke:#7137c8;stroke-width:2.13258;stroke-linecap:butt;stroke-linejoin:miter;stroke-miterlimit:4;stroke-dasharray:none;stroke-opacity:1"
       d="M 74.943315,38.516164 79.001221,10.973882 H 34.364053 L 12.451249,40.352312 11.639664,75.239239 31.11772,96.354979 72.508558,94.518814 88.740241,72.485015 91.986585,41.270381 46.537835,47.69693 v 16.525398 l 15.420096,1.836146 -1.623168,5.508463 H 45.726239 L 37.610385,59.631926 42.479908,42.188455 Z"
       id="path847-7-5-8"
       inkscape:connector-curvature="0" />
    <path
       style="fill:#7137c8;fill-opacity:1;stroke:#7137c8;stroke-width:2.13258;stroke-linecap:round;stroke-linejoin:miter;stroke-miterlimit:4;stroke-dasharray:none;stroke-opacity:1"
       d="M 63.774489,58.857957 86.369017,104.07492 95.245425,86.112034 109.72087,104.69432 131.50843,60.096792 113.80521,53.90268 107.34963,73.104424 95.245425,56.999733 87.982889,72.485015 79.913413,53.90268 Z"
       id="path860-90-8-8"
       inkscape:connector-curvature="0"
       sodipodi:nodetypes="ccccccccccc" />
    <path
       style="fill:#000000;fill-opacity:1;stroke:#7137c8;stroke-width:2.13258;stroke-linecap:butt;stroke-linejoin:miter;stroke-miterlimit:4;stroke-dasharray:none;stroke-opacity:1"
       d="M 6.5437422,101.91579 C 40.401599,94.511117 69.266782,92.299783 91.27177,92.205858 c 29.7992,-0.127197 47.01773,3.628628 47.01773,3.628628 l 7.84694,14.184874 c 0,0 -31.80069,-20.67352 -139.5926978,-8.10357 z"
       id="path1014-0-4-4"
       sodipodi:nodetypes="csccc" />
    <path
       style="fill:#7137c8;stroke:#7137c8;stroke-width:2.13258;stroke-linecap:butt;stroke-linejoin:miter;stroke-miterlimit:4;stroke-dasharray:none;stroke-opacity:1"
       d="M 131.50843,60.096792 109.72087,104.69432 95.245425,86.112034 v 0"
       id="path4059" />
    <path
       style="fill:#7137c8;fill-opacity:1;stroke:#7137c8;stroke-width:2.64333;stroke-linecap:butt;stroke-linejoin:miter;stroke-miterlimit:4;stroke-dasharray:none;stroke-opacity:1"
       d="m 239.66227,166.46022 5.02976,-34.13855 h -55.32758 l -27.16084,36.41445 -1.00595,43.2422 24.14297,26.17288 51.30377,-2.27592 20.11911,-27.31081 4.02383,-38.69041 -56.33355,7.96568 v 20.48317 l 19.11315,2.27589 -2.01191,6.82772 h -18.10721 l -10.05956,-14.7934 6.03575,-21.62111 z"
       id="path847-7-5-8-8"
       inkscape:connector-curvature="0" />
    <path
       style="fill:#000000;fill-opacity:1;stroke:#7137c8;stroke-width:2.64333;stroke-linecap:round;stroke-linejoin:miter;stroke-miterlimit:4;stroke-dasharray:none;stroke-opacity:1"
       d="m 225.81856,191.67379 28.00582,56.04625 11.00228,-22.26493 17.94226,23.03268 27.00559,-55.27847 -21.94307,-7.67757 -8.00167,23.80048 -15.00311,-19.9617 -9.00189,19.19394 -10.00208,-23.03272 z"
       id="path860-90-8-8-0"
       inkscape:connector-curvature="0"
       sodipodi:nodetypes="ccccccccccc" />
    <path
       style="fill:#000000;fill-opacity:1;stroke:#7137c8;stroke-width:2.64333;stroke-linecap:butt;stroke-linejoin:miter;stroke-miterlimit:4;stroke-dasharray:none;stroke-opacity:1"
       d="m 154.88128,245.0438 c 41.96668,-9.17806 77.74495,-11.919 105.02005,-12.03542 36.93599,-0.15766 58.27829,4.49767 58.27829,4.49767 l 9.72625,17.5821 c 0,0 -39.41682,-25.62475 -173.02459,-10.04435 z"
       id="path1014-0-4-4-5"
       sodipodi:nodetypes="csccc" />
    <path
       style="fill:#000000;fill-opacity:1;stroke:#7137c8;stroke-width:2.64333;stroke-linecap:round;stroke-linejoin:miter;stroke-miterlimit:4;stroke-dasharray:none;stroke-opacity:1"
       d="m -38.724318,192.33891 28.00582,56.04625 11.00228058,-22.26493 17.94225942,23.03268 27.00559,-55.27847 -21.94307,-7.67757 -8.00167,23.80048 -15.00310942,-19.9617 -9.00188998,19.19394 -10.0020806,-23.03272 z"
       id="path860-90-8-8-0-6"
       inkscape:connector-curvature="0"
       sodipodi:nodetypes="ccccccccccc" />
    <path
       style="fill:#000000;fill-opacity:1;stroke:#7137c8;stroke-width:2.64333;stroke-linecap:butt;stroke-linejoin:miter;stroke-miterlimit:4;stroke-dasharray:none;stroke-opacity:1"
       d="m -109.66159,245.70892 c 41.966672,-9.17806 77.744942,-11.919 105.0200426,-12.03542 36.9359894,-0.15766 58.2782894,4.49767 58.2782894,4.49767 l 9.72625,17.5821 c 0,0 -39.41682,-25.62475 -173.024582,-10.04435 z"
       id="path1014-0-4-4-5-8"
       sodipodi:nodetypes="csccc" />
    <path
       style="fill:#000000;stroke:#7137c8;stroke-width:2.64333;stroke-linecap:butt;stroke-linejoin:miter;stroke-miterlimit:4;stroke-dasharray:none;stroke-opacity:1"
       d="M 45.231632,193.87444 18.226042,249.15291 0.28378258,226.12023 v 0"
       id="path4059-7-5" />
  </g>
</svg>
