<?xml version="1.0" encoding="UTF-8" standalone="no"?>
<svg
   xmlns:dc="http://purl.org/dc/elements/1.1/"
   xmlns:cc="http://creativecommons.org/ns#"
   xmlns:rdf="http://www.w3.org/1999/02/22-rdf-syntax-ns#"
   xmlns:svg="http://www.w3.org/2000/svg"
   xmlns="http://www.w3.org/2000/svg"
   xmlns:sodipodi="http://sodipodi.sourceforge.net/DTD/sodipodi-0.dtd"
   xmlns:inkscape="http://www.inkscape.org/namespaces/inkscape"
   width="210mm"
   height="297mm"
   viewBox="0 0 210 297"
   version="1.1"
   id="svg2585"
   sodipodi:docname="logo.svg"
   inkscape:version="1.0.2 (e86c870879, 2021-01-15, custom)">
  <defs
     id="defs2579" />
  <sodipodi:namedview
     id="base"
     pagecolor="#ffffff"
     bordercolor="#666666"
     borderopacity="1.0"
     inkscape:pageopacity="0.0"
     inkscape:pageshadow="2"
     inkscape:zoom="0.35"
     inkscape:cx="692.06676"
     inkscape:cy="461.25416"
     inkscape:document-units="mm"
     inkscape:current-layer="layer1"
     inkscape:document-rotation="0"
     showgrid="false"
     inkscape:window-width="1366"
     inkscape:window-height="705"
     inkscape:window-x="-8"
     inkscape:window-y="-8"
     inkscape:window-maximized="1" />
  <metadata
     id="metadata2582">
    <rdf:RDF>
      <cc:Work
         rdf:about="">
        <dc:format>image/svg+xml</dc:format>
        <dc:type
           rdf:resource="http://purl.org/dc/dcmitype/StillImage" />
        <dc:title></dc:title>
      </cc:Work>
    </rdf:RDF>
  </metadata>
  <g
     inkscape:label="Capa 1"
     inkscape:groupmode="layer"
     id="layer1">
    <path
       style="fill:#000000;fill-opacity:1;stroke:none;stroke-width:2;stroke-linecap:butt;stroke-linejoin:miter;stroke-miterlimit:4;stroke-dasharray:none;stroke-opacity:1"
       d="m 100.80101,18.949554 c 32.0488,0.937179 35.38091,-15.4659716 53.7212,-2.672696 33.39571,26.716753 37.22129,152.735472 -9.35443,95.949892 L 131.3237,93.36144 c -14.89598,-0.571482 -13.22126,-2.746598 -19.83188,-4.11989 h -10.95807 v 0"
       id="path3212-9"
       sodipodi:nodetypes="ccccccc" />
    <path
       style="fill:#000000;fill-opacity:1;stroke:none;stroke-width:2;stroke-linecap:butt;stroke-linejoin:miter;stroke-miterlimit:4;stroke-dasharray:none;stroke-opacity:1"
       d="M 101.06919,19.036222 C 69.020418,19.973401 65.688311,3.5702504 47.34802,16.363526 13.952304,43.080279 10.126721,169.09898 56.702452,112.3134 L 70.546528,93.44809 C 85.442511,92.876608 83.767784,90.701494 90.378412,89.3282 h 10.958058 v 0"
       id="path3212"
       sodipodi:nodetypes="ccccccc" />
    <path
       style="fill:#d40000;fill-opacity:1;stroke:#ffffff;stroke-width:1.50343;stroke-linecap:butt;stroke-linejoin:miter;stroke-miterlimit:4;stroke-dasharray:none;stroke-opacity:1"
       d="M 105.96589,41.830219 108.8012,22.586117 H 77.612693 L 62.301978,43.113157 61.734915,67.489072 75.344443,82.24291 104.2647,80.959968 115.60596,65.564656 117.87421,43.754628 86.118655,48.244926 v 11.546486 l 10.774192,1.282932 -1.134115,3.84884 H 85.551581 L 79.88095,56.584039 83.28334,44.396096 Z"
       id="path847-7-5-8"
       inkscape:connector-curvature="0" />
    <path
       style="fill:#ffffff;fill-opacity:1;stroke:#ffffff;stroke-width:1.50343;stroke-linecap:butt;stroke-linejoin:miter;stroke-miterlimit:4;stroke-dasharray:none;stroke-opacity:1"
       d="m 98.162102,56.043271 15.787048,31.593665 6.20205,-12.550904 10.11416,12.983694 15.22321,-31.160878 -12.36945,-4.327887 -4.51058,13.416487 -8.45734,-11.252543 -5.07441,10.819751 -5.63823,-12.983695 z"
       id="path860-90-8-8"
       inkscape:connector-curvature="0"
       sodipodi:nodetypes="ccccccccccc" />
    <path
       style="fill:#aa0000;fill-opacity:1;stroke:#ffffff;stroke-width:1.50343;stroke-linecap:butt;stroke-linejoin:miter;stroke-miterlimit:4;stroke-dasharray:none;stroke-opacity:1"
       d="M 58.337809,86.192252 C 113.56029,73.888758 149.61226,81.90033 149.61226,81.90033 l 5.43641,10.014456 c 0,0 -22.03175,-14.592498 -96.710861,-5.722534 z"
       id="path1014-0-4-4" />
    <path
       style="fill:#f9f9f9;fill-opacity:1;stroke:#ffffff;stroke-width:1.50343;stroke-linecap:round;stroke-linejoin:round;stroke-miterlimit:4;stroke-dasharray:none;stroke-opacity:1"
       d="m 145.48857,56.908848 -15.22321,31.160878 -9.58499,-12.983694 v 0 0"
       id="path1622-9-3-5"
       sodipodi:nodetypes="ccccc" />
    <path
       style="fill:#ffffff;fill-opacity:1;stroke:#000000;stroke-width:2;stroke-linecap:round;stroke-linejoin:miter;stroke-miterlimit:4;stroke-dasharray:none;stroke-opacity:1"
       d="m 100.80103,163.01317 c 32.04879,0.93718 35.3809,-15.46597 53.72119,-2.6727 33.39571,26.71675 37.22129,152.73548 -9.35443,95.9499 l -13.84408,-18.86532 c -14.89598,-0.57148 -13.22126,-2.74659 -19.83188,-4.11989 h -10.95808 v 0"
       id="path3212-9-7"
       sodipodi:nodetypes="ccccccc" />
    <path
       style="fill:#ffffff;fill-opacity:1;stroke:#000000;stroke-width:2;stroke-linecap:round;stroke-linejoin:miter;stroke-miterlimit:4;stroke-dasharray:none;stroke-opacity:1"
       d="m 101.06921,163.09984 c -32.048788,0.93718 -35.380898,-15.46598 -53.721188,-2.6727 -33.39572,26.71675 -37.221301,152.73546 9.35443,95.94988 l 13.84408,-18.86532 c 14.89598,-0.57148 13.22125,-2.74659 19.83188,-4.11989 h 10.958068 v 0"
       id="path3212-2"
       sodipodi:nodetypes="ccccccc" />
    <path
       style="fill:#d40000;fill-opacity:1;stroke:#000000;stroke-width:1.50343;stroke-linecap:butt;stroke-linejoin:miter;stroke-miterlimit:4;stroke-dasharray:none;stroke-opacity:1"
       d="m 105.9659,185.89383 2.83531,-19.2441 H 77.612692 l -15.31071,20.52704 -0.56707,24.37592 13.60953,14.75383 28.920268,-1.28294 11.34126,-15.39531 2.26825,-21.81003 -31.755568,4.4903 v 11.54649 l 10.77419,1.28293 -1.13411,3.84884 h -10.20715 l -5.67063,-8.33915 3.40239,-12.18794 z"
       id="path847-7-5-8-2"
       inkscape:connector-curvature="0" />
    <path
       style="fill:#1a1a1a;fill-opacity:1;stroke:#000000;stroke-width:1.50343;stroke-linecap:butt;stroke-linejoin:miter;stroke-miterlimit:4;stroke-dasharray:none;stroke-opacity:1"
       d="m 98.162102,200.10688 15.787058,31.59367 6.20205,-12.5509 10.11416,12.98369 15.22321,-31.16088 -12.36945,-4.32789 -4.51058,13.41649 -8.45734,-11.25254 -5.07441,10.81975 -5.63823,-12.9837 z"
       id="path860-90-8-8-7"
       inkscape:connector-curvature="0"
       sodipodi:nodetypes="ccccccccccc" />
    <path
       style="fill:#aa0000;fill-opacity:1;stroke:#000000;stroke-width:1.50343;stroke-linecap:butt;stroke-linejoin:miter;stroke-miterlimit:4;stroke-dasharray:none;stroke-opacity:1"
       d="m 58.337812,230.25587 c 55.222488,-12.3035 91.274458,-4.29193 91.274458,-4.29193 l 5.43641,10.01446 c 0,0 -22.03175,-14.5925 -96.710868,-5.72253 z"
       id="path1014-0-4-4-9" />
    <path
       style="fill:#1a1a1a;fill-opacity:1;stroke:#000000;stroke-width:1.50343;stroke-linecap:round;stroke-linejoin:round;stroke-miterlimit:4;stroke-dasharray:none;stroke-opacity:1"
       d="m 145.48858,200.97246 -15.22321,31.16088 -9.58499,-12.98369 v 0 0"
       id="path1622-9-3-5-9"
       sodipodi:nodetypes="ccccc" />
  </g>
</svg>
