<?xml version="1.0" encoding="UTF-8" standalone="no"?>
<svg
   xmlns:dc="http://purl.org/dc/elements/1.1/"
   xmlns:cc="http://creativecommons.org/ns#"
   xmlns:rdf="http://www.w3.org/1999/02/22-rdf-syntax-ns#"
   xmlns:svg="http://www.w3.org/2000/svg"
   xmlns="http://www.w3.org/2000/svg"
   xmlns:sodipodi="http://sodipodi.sourceforge.net/DTD/sodipodi-0.dtd"
   xmlns:inkscape="http://www.inkscape.org/namespaces/inkscape"
   width="1000"
   height="1000"
   viewBox="0 0 264.58333 264.58333"
   version="1.1"
   id="svg1492"
   inkscape:version="1.0.2 (e86c870879, 2021-01-15, custom)"
   sodipodi:docname="logo-podcast.svg">
  <defs
     id="defs1486" />
  <sodipodi:namedview
     id="base"
     pagecolor="#ffffff"
     bordercolor="#666666"
     borderopacity="1.0"
     inkscape:pageopacity="0.0"
     inkscape:pageshadow="2"
     inkscape:zoom="0.49497475"
     inkscape:cx="581.58438"
     inkscape:cy="546.3315"
     inkscape:document-units="mm"
     inkscape:current-layer="layer1"
     inkscape:document-rotation="0"
     showgrid="false"
     units="px"
     width="1000mm"
     inkscape:window-width="1366"
     inkscape:window-height="705"
     inkscape:window-x="-8"
     inkscape:window-y="-8"
     inkscape:window-maximized="1" />
  <metadata
     id="metadata1489">
    <rdf:RDF>
      <cc:Work
         rdf:about="">
        <dc:format>image/svg+xml</dc:format>
        <dc:type
           rdf:resource="http://purl.org/dc/dcmitype/StillImage" />
        <dc:title></dc:title>
      </cc:Work>
    </rdf:RDF>
  </metadata>
  <g
     inkscape:label="Capa 1"
     inkscape:groupmode="layer"
     id="layer1">
    <path
       style="fill:#d40000;fill-opacity:1;stroke:#000000;stroke-width:4.03589;stroke-linecap:butt;stroke-linejoin:miter;stroke-miterlimit:4;stroke-dasharray:none;stroke-opacity:1"
       d="m 129.74572,91.537709 7.61124,-51.659882 H 53.63293 l -41.10091,55.103868 -1.522255,65.435915 36.534154,39.60589 77.635031,-3.44402 30.44508,-41.32785 6.08902,-58.547954 -85.246278,12.054004 v 30.99598 l 28.922818,3.44398 -3.04451,10.33199 H 74.944494 L 59.721935,131.14364 68.855491,98.425669 Z"
       id="path847-7-5-8"
       inkscape:connector-curvature="0" />
    <path
       style="fill:#1a1a1a;fill-opacity:1;stroke:#000000;stroke-width:4.03589;stroke-linecap:butt;stroke-linejoin:miter;stroke-miterlimit:4;stroke-dasharray:none;stroke-opacity:1"
       d="m 108.79683,129.69194 42.37959,84.81153 16.6491,-33.69222 27.15098,34.85401 40.86599,-83.64969 -33.20518,-11.61803 -12.10846,36.01589 -22.70333,-30.20688 -13.62203,29.04508 -15.13557,-34.85409 z"
       id="path860-90-8-8"
       inkscape:connector-curvature="0"
       sodipodi:nodetypes="ccccccccccc" />
    <path
       style="fill:#aa0000;fill-opacity:1;stroke:#000000;stroke-width:4.0326;stroke-linecap:butt;stroke-linejoin:miter;stroke-miterlimit:4;stroke-dasharray:none;stroke-opacity:1"
       d="M 1.4515612,210.45368 C 150.95691,177.75704 248.56146,199.04723 248.56146,199.04723 l 14.71816,26.60597 c 0,0 -59.64718,-38.77644 -261.8280588,-15.19952 z"
       id="path1014-0-4-4" />
    <path
       style="fill:#1a1a1a;stroke:#000000;stroke-width:4;stroke-linecap:butt;stroke-linejoin:miter;stroke-miterlimit:4;stroke-dasharray:none;stroke-opacity:1"
       d="m 235.84249,132.01557 -40.86599,83.64969 -27.15098,-34.85401 v 0"
       id="path4059" />
    <text
       xml:space="preserve"
       style="font-size:10.5833px;line-height:1.25;font-family:'Comic Sans MS';-inkscape-font-specification:'Comic Sans MS';letter-spacing:0px;stroke-width:0.264583"
       x="148.60187"
       y="73.23185"
       id="text5395"><tspan
         sodipodi:role="line"
         id="tspan5393"
         x="148.60187"
         y="73.23185"
         style="stroke-width:0.264583" /></text>
    <path
       style="fill:#000000;stroke-width:0.045951"
       d="m 207.73457,123.00171 0.42971,-1.16388 5.30211,1.95766 5.30213,1.95763 0.77989,-2.11221 0.77987,-2.11225 -0.16158,-0.0602 c -0.23679,-0.088 -1.12864,-0.59066 -1.61945,-0.91242 -3.79207,-2.48591 -6.21982,-6.61699 -6.5465,-11.13943 -0.061,-0.8442 -0.0165,-2.17325 0.0999,-3.00011 0.19431,-1.37808 0.19649,-1.38501 1.51511,-5.01242 l 1.20499,-3.314528 1.22711,0.453067 1.22708,0.453047 -1.11426,3.078634 c -1.20202,3.32114 -1.24857,3.47474 -1.40922,4.65967 -0.60074,4.43008 1.36826,8.86928 5.0513,11.38836 0.91515,0.62592 1.34196,0.8395 2.62132,1.31186 1.27772,0.47178 1.75221,0.58974 2.8325,0.70402 4.26943,0.45183 8.44245,-1.42475 10.94563,-4.92222 0.8349,-1.16653 1.14912,-1.8549 2.43423,-5.33302 l 0.97549,-2.64005 1.231,0.45452 1.23095,0.45449 -1.23747,3.30257 c -1.18838,3.17148 -1.25009,3.3251 -1.55694,3.87033 -0.88253,1.56875 -1.9263,2.88095 -3.14723,3.95664 -0.56065,0.49396 -1.49829,1.17987 -2.15891,1.57931 -0.6366,0.38496 -2.11633,1.06828 -2.80702,1.29628 -2.04591,0.67542 -4.08916,0.90327 -6.15369,0.68628 -0.75928,-0.0798 -1.90049,-0.2877 -2.2165,-0.40378 l -0.14015,-0.0515 -0.77987,2.11226 -0.7799,2.1122 5.30212,1.95766 5.30212,1.95763 -0.42973,1.16389 -0.42974,1.16389 -11.76809,-4.34502 -11.76812,-4.34501 z m 15.15528,-7.41586 c -0.0675,-0.0362 -0.31673,-0.18233 -0.55422,-0.32381 -2.61705,-1.55948 -4.12995,-4.65375 -3.76423,-7.69883 0.11555,-0.96207 0.0718,-0.83441 3.16265,-9.208628 3.15102,-8.537147 3.06612,-8.323286 3.65848,-9.175215 0.80409,-1.155672 1.83417,-2.016898 3.1497,-2.63348 1.25808,-0.589653 2.45214,-0.827906 3.78163,-0.754594 4.55788,0.251265 7.9463,4.2028 7.49858,8.744789 -0.0906,0.91782 0.0614,0.471842 -3.06945,9.006168 -2.01638,5.49506 -2.98575,8.09419 -3.13359,8.39469 -1.40628,2.86698 -4.3059,4.60562 -7.48067,4.48539 -0.82206,-0.0313 -1.35155,-0.14032 -2.28192,-0.47043 -0.46458,-0.16452 -0.89968,-0.32939 -0.9667,-0.36669 z"
       id="path3785"
       inkscape:connector-curvature="0" />
    <path
       style="fill:none;stroke:#000000;stroke-width:0.349201px;stroke-linecap:butt;stroke-linejoin:miter;stroke-opacity:1"
       d="M 219.80982,98.111842 Z"
       id="path3787"
       inkscape:connector-curvature="0" />
    <path
       style="fill:#000000;stroke-width:0.310383"
       d="m 222.75962,80.677177 -0.39483,-2.673701 1.01608,-0.474788 c 1.80726,-0.844489 5.13857,-1.550909 7.6426,-1.620585 5.71995,-0.159032 12.16686,2.783104 16.09258,7.344571 1.08175,1.256998 3.08351,4.808024 2.93609,5.208565 -0.0639,0.172605 -0.96724,0.981383 -2.0082,1.797057 l -1.89268,1.48306 -0.81016,-1.648696 c -2.70928,-5.513424 -8.93002,-9.185554 -14.98681,-8.846762 -1.83226,0.102567 -4.74201,0.921421 -5.88109,1.65525 -0.51401,0.331167 -1.02108,0.567809 -1.12669,0.525932 -0.10566,-0.04221 -0.36976,-1.279376 -0.58689,-2.749903 z m -1.81196,-11.408944 -0.37401,-2.470597 1.4166,-0.719383 c 3.31845,-1.685249 8.38291,-2.574694 13.33758,-2.342444 2.1331,0.09994 3.08541,0.362167 7.21077,1.985042 3.00251,1.180897 5.2622,2.252779 6.13516,2.909679 3.8291,2.881185 7.2175,6.916751 9.14998,10.897339 l 1.12842,2.324389 -1.92401,1.478402 c -1.05816,0.813084 -2.02214,1.508178 -2.14212,1.544655 -0.12004,0.03632 -0.49253,-0.616771 -0.82783,-1.451699 -1.29142,-3.215736 -4.02833,-6.697433 -7.37556,-9.382829 -1.19764,-0.960822 -2.66657,-1.698305 -5.95812,-2.991144 -3.84695,-1.511011 -4.70022,-1.732834 -7.14605,-1.857956 -3.27278,-0.167293 -7.29289,0.532151 -10.06999,1.752544 -1.09328,0.480404 -2.03257,0.85572 -2.08728,0.834015 -0.0547,-0.02181 -0.26779,-1.151196 -0.47354,-2.510013 z"
       id="path256"
       inkscape:connector-curvature="0"
       sodipodi:nodetypes="cccsssccsscscccccccscscccsscsc" />
  </g>
</svg>
